<svg width="15" height="17" viewBox="0 0 15 17" fill="none" xmlns="http://www.w3.org/2000/svg">
<path d="M6.53333 1.5C7.15217 1.5 7.74566 1.76339 8.18325 2.23223C8.62083 2.70107 8.86667 3.33696 8.86667 4V4.5H4.2V4C4.2 3.33696 4.44583 2.70107 4.88342 2.23223C5.321 1.76339 5.91449 1.5 6.53333 1.5ZM9.8 4.5V4C9.8 3.07174 9.45583 2.1815 8.84321 1.52513C8.2306 0.868749 7.39971 0.5 6.53333 0.5C5.66696 0.5 4.83607 0.868749 4.22345 1.52513C3.61083 2.1815 3.26667 3.07174 3.26667 4V4.5H0V14.5C0 15.0304 0.196666 15.5391 0.546734 15.9142C0.896802 16.2893 1.3716 16.5 1.86667 16.5H11.2C11.6951 16.5 12.1699 16.2893 12.5199 15.9142C12.87 15.5391 13.0667 15.0304 13.0667 14.5V4.5H9.8ZM0.933333 5.5H12.1333V14.5C12.1333 14.7652 12.035 15.0196 11.86 15.2071C11.6849 15.3946 11.4475 15.5 11.2 15.5H1.86667C1.61913 15.5 1.38173 15.3946 1.2067 15.2071C1.03167 15.0196 0.933333 14.7652 0.933333 14.5V5.5Z" fill="black"/>
<circle cx="12" cy="5.5" r="3" fill="#6D28D9"/>
</svg>
